<svg xmlns="http://www.w3.org/2000/svg" xmlns:i="http://ns.adobe.com/AdobeIllustrator/10.0/" viewBox="0 0 100 240">

<style>
	svg {
		background: #F0F0F0;
		position: absolute;
		bottom: 0;
		height: 100%;
}
	.style1{
		stroke:	#000000;
		stroke-miterlimit:	10;
		stroke-width:	1;
	}
	.cone{
		fill: #FBDF99 !important;
	}
</style>
<div id="CustomCss">
</div>
<g dimmedPercent="50" i:layer="yes" i:rgbTrio="#4F008000FFFF">
    <g>
      <path d=" M6.746 108.481c-0.972 1.908-1.368 3.78-0.792 5.616c0.396 1.8 1.8 3.6 3.7 5.4l2.7 29.1 c-0.936 0.971-1.44 2.051-1.656 2.844c-0.216 0.791-0.504 1 0.5 2.16c0.936 1 3.5 3.1 5.3 4.1 c1.692 0.9 3.3 1.4 5 1.512c1.872 1.4 3.2 3.8 4.2 7.381c0.9 3.5 0.6 6.8 1.5 13.7 c0.684 6.8 2.1 20.4 3.1 27.324c1.116 6.8 2.1 11.2 3.2 13.355c-0.792 2.951-0.864 5.615-0.072 8 c0.72 2.3 1 4.3 4.6 6.012c3.708 1.7 11.2 3.7 17.2 4.283c5.868 0.5 13.141-0.576 17.784-1.332 c4.464-0.756 7.416-1.08 9.432-3.348c2.017-2.484 2.664-6.047 2.34-11.088c0.576-3.959 1.08-7.199 1.513-9.863 c0.359-2.736 0.647-2.197 1.008-6.156c0.252-4.213 0.396-11.953 1.008-18.072c0.576-6.156 1.872-13.896 2.772-18.359 c0.72-4.537 1.332-6.445 2.268-8.496c0.864-2.16 1.368-2.629 3.456-4.176c2.088-1.656 4.968-3.492 8.928-5.508 c-0.359-2.09-0.576-5.006-0.647-8.605c-0.181-3.744-0.324-9.18-0.145-13.248c0.036-4.104 0.396-7.848 0.792-11.231 c1.261-0.72 2.16-1.728 2.845-3.024c0.684-1.44 1.008-2.988 1.115-5.04c2.628-3.204 4.104-6.408 4.824-9.756 c0.576-3.42 0.288-7.128-1.008-10.152c-1.332-3.06-3.528-5.688-6.732-8.028c3.456-3.204 5.112-6.624 5.257-10.692 c0-4.176-2.521-10.224-4.788-13.428c-2.305-3.204-5.221-5.004-8.748-5.544c2.52-4.932 3.023-9.468 1.655-13.752 c-1.512-4.356-5.58-7.848-10.115-11.844c-4.645-4.068-13.32-7.776-17.28-12.096c-4.068-4.5-3.636-11.556-6.336-14.22 c-2.809-2.7-8.244-2.412-9.648-1.908c-1.332 0.4 1.2 2.7 1.4 4.32c-0.036 1.4 1 2.736-1.332 4.6 c-2.484 1.908-10.044 4.176-13.104 6.948c-3.168 2.7-4.716 5.76-5.184 9.324c-7.812 5.04-13.428 9.72-16.848 14 c-3.492 4.284-3.636 7.596-3.888 11.736c-0.288 4.1 0.4 8.2 2.1 12.708c-8.784 4.428-14.688 9.396-17.856 14.8 c-3.24 5.436-2.016 12.384-1.188 17.496C1.67 101.2 3.6 105.2 6.7 108.481z" class="style0"/>
      <path d=" M59.342 1.129c2.484-0.036 4.5 0.6 5.8 2.34c1.188 1.6 0.5 4.7 1.9 7.452c1.296 2.6 2.5 5 6.3 8.4 c3.888 3.3 12.5 7.9 16.7 11.484c3.96 3.4 6.3 5.4 7.5 9.216c1.116 3.7 0.9 8.316-0.648 13.6 c-7.704 0.324-15.048-0.216-22.716-1.764c-7.704-1.656-17.316-4.572-22.716-7.38c-5.364-2.772-7.668-5.76-9.432-9.108 c-1.908-3.384-2.448-7.668-1.764-10.764c0.648-3.276 2.772-5.94 5.544-7.992c2.664-1.98 7.92-2.7 10.476-4.104 c2.376-1.548 3.744-3.204 4.249-5.112C60.998 5.4 60.6 3.5 59.3 1.129z" class="style1 topping1"/>
      <path d=" M38.174 27.445c-0.432 3.9 0 7.2 1.8 10.188c1.62 3 3.4 4.9 8.3 7.488c4.788 2.5 14.2 5.4 21 7.3 c6.696 1.7 14.1 2.7 19.3 3.42c5.04 0.6 8.496-0.828 11.5 0.396c2.988 1.1 5 3.9 6.6 6.7 c1.548 2.6 2.8 6.3 2.6 9.612c-0.288 3.24-1.692 6.516-4.213 9.972c-3.491-1.872-8.855-3.168-16.235-3.888 c-7.416-0.864-19.296-0.18-28.008-0.576c-8.928-0.468-18.396 0.288-24.66-1.62c-6.3-2.016-9.972-6.48-12.672-10.188 c-2.808-3.78-3.564-8.172-3.672-12.204c-0.108-4.248 0.864-9.036 2.772-12.564c1.8-3.528 5.364-5.76 8.064-8.064 C33.206 31 35.7 29.1 38.2 27.445z" class="style1 topping1 topping2"/>
      <path d=" M20.894 65.785c0.432 1.9 1.7 4 4.1 6.156c2.304 2.2 4.4 5.3 9.9 6.768c5.4 1.2 14.5 0.9 22.8 1.2 c8.244 0.1 19.1 0 26.2 0.54c6.984 0.5 11.6 1.2 15.9 2.7c4.213 1.4 7.3 3 9.3 5.8 c2.017 2.7 2.5 6.6 2.4 10.584c-0.288 3.816-1.548 7.884-3.924 12.348c-9.468 3.24-19.332 5.4-30.42 6.3 c-11.124 0.9-24.084 1.008-35.388-0.648c-11.448-1.728-25.596-4.104-32.184-9.504c-6.588-5.652-8.856-16.272-6.948-23.4 C4.478 77.4 10.4 71.4 20.9 65.785z" class="style1 topping1 topping3"/>
      <path d=" M101.857 121.441c-8.136 3.779-17.352 6.229-28.08 7.199c-10.836 0.865-25.848-0.072-36.144-1.439 c-10.332-1.404-18.612-3.6-25.272-6.732c-2.088-2.16-3.204-4.284-3.888-5.976c-0.648-1.728-0.54-3.42 0.18-4.68 c-0.252 1.3 2.5 2.8 8.2 4.572c5.76 1.7 15.8 4.9 26.1 5.976c10.152 1 23.3 1.2 34.3 0 c10.837-1.223 20.845-3.6 30.421-7.127c0.252 1.2 0.1 2.196-0.937 3.672C105.638 118.3 104.2 119.8 101.9 121.441z" class="style1 cone"/>
      <path d=" M12.074 122.988l1.8 26.354c4.32 2.7 11.8 4.7 22.6 5.65c10.8 0.8 30.2 1.1 41.7 0.5 c11.268-0.576 19.729-1.836 25.813-3.779c-0.469-4.932-0.757-9.648-0.864-14.438c-0.145-4.787-0.108-9.359 0.107-14.004 c-5.399 2.916-11.88 5.076-19.872 6.336c-8.136 1.225-18.54 1.621-27.863 1.332c-9.468-0.395-20.376-1.943-27.72-3.275 C20.426 126.3 15.3 124.7 12.1 122.988z" class="style1 cone"/>
      <path d=" M96.746 156.686c-2.593 1.98-8.425 3.42-18.036 4.031c-9.792 0.576-29.196 0.469-39.313-0.18 c-10.08-0.648-16.596-2.52-20.916-3.672c-4.428-1.297-4.716-2.844-5.328-3.672c-0.72-0.9-1.584-2.053 1.44-1.512 c3.024 0.5 8.7 3.3 16.4 4.463c7.704 0.9 20.7 1.4 29.1 1.621c8.244 0.1 14 0 20.448-0.469 c6.372-0.504 12.096-1.225 17.604-2.305C97.682 155.5 97.2 156.1 96.7 156.686z" class="style1 cone"/>
      <path d=" M26.33 160.502c1.188 1.5 2.2 5.1 3.1 10.836c0.792 5.8 1.4 14.7 2.3 23.219c1.008 8.4 2.1 17.3 3.5 27 c2.952 2.8 7.1 4.8 12.5 5.869c5.364 1.1 13.8 1.3 19.8 0.504c6.012-0.828 11.195-2.809 15.948-5.652 c0.323-3.961 0.575-9.107 1.151-15.732c0.468-6.732 1.116-17.641 1.8-23.688c0.648-6.084 0.937-8.641 1.98-12.385 c0.936-3.779 2.16-7.02 3.672-10.008c-5.652 1.188-11.52 2.088-18 2.701c-6.48 0.467-12.528 1.295-20.484 0.8 C45.59 163.5 36.7 162.4 26.3 160.502z" class="style1 cone"/>
      <path d=" M34.934 165.469l1.224 9.793l9.9 0.719l-8.892-1.656L34.934 165.469z" class="style0"/>
      <path d=" M37.13 179.977l1.944 17.568l9.864 1.691l-8.676-2.807L37.13 179.977z" class="style0"/>
      <path d=" M40.622 203.449l0.972 16.379l7.704 2.018l-6.12-3.133L40.622 203.449z" class="style0"/>
      <path d=" M51.782 167.629l0.288 8.389l6.228 0.215l-4.824-1.152l-1.728-6.299L51.782 167.629z" class="style0"/>
      <path d=" M52.105 180.301l1.296 19.512l5.795 0.396l-4.428-1.332L52.105 180.301z" class="style0"/>
      <path d=" M53.618 204.277l0.576 17.531l5.436 0.396l-4.248-1.512L53.618 204.277z" class="style0"/>
      <path d=" M62.905 167.232l0.469 8.785l4.859-0.217l-3.852-0.719l-1.548-6.301L62.905 167.232z" class="style0"/>
      <path d=" M62.653 179.689l0.828 20.447l6.84-0.324l-5.399-0.971L62.653 179.689z" class="style0"/>
      <path d=" M63.157 204.816l0.54 17.354l5.257-0.217l-4.248-0.721L63.157 204.816z" class="style0"/>
      <path d=" M73.489 203.988l-1.188 17.102l4.32-1.008l-3.097-0.109L73.489 203.988z" class="style0"/>
      <path d=" M73.382 179.473l-0.324 19.656l4.896-1.008l-3.889 0.252L73.382 179.473z" class="style0"/>
      <path d=" M74.21 166.656l-0.504 8.172l7.235-0.936l-5.832-0.18L74.21 166.656z" class="style0"/>
      <path d=" M82.562 166.766l-0.036 6.623l2.736-0.324l-1.512-0.611L82.562 166.766z" class="style0"/>
      <path d=" M81.518 179.762l-0.792 17.496l3.348-1.262l-2.304-0.252L81.518 179.762z" class="style0"/>
      <path d=" M80.113 203.666l-1.151 16.486l4.14-2.195l-3.312 0.684l0.323-14.977V203.666z" class="style0"/>
    </g>
  </g>
</svg>
